<svg width="125" height="125" viewBox="0 0 125 125" fill="none" xmlns="http://www.w3.org/2000/svg">
<path d="M0 111.184C0 113.954 2.245 116.202 5.0175 116.202H119.982C122.755 116.202 125 113.954 125 111.184V32.8618H0V111.184Z" fill="#0072C6"/>
<path d="M119.982 9.61694H5.0175C2.245 9.61694 0 11.8619 0 14.6344V41.2019H125V14.6344C125 11.8619 122.753 9.61694 119.982 9.61694Z" fill="#A0A1A2"/>
<path opacity="0.2" d="M5.03496 9.61694C2.26496 9.61694 0.0174561 11.8619 0.0174561 14.6344V32.8619V41.2019V111.184C0.0174561 113.954 2.26496 116.202 5.03496 116.202H10.505L109.05 9.61694H5.03496Z" fill="white"/>
<path d="M116.32 21.5649H32.1426V31.4199H116.32V21.5649Z" fill="white"/>
<path d="M28.2749 26.3254C28.2749 33.0579 22.8149 38.5204 16.0799 38.5204C9.34489 38.5204 3.88489 33.0579 3.88489 26.3254C3.88489 19.5904 9.34489 14.1279 16.0799 14.1279C22.8124 14.1279 28.2749 19.5904 28.2749 26.3254Z" fill="#59B4D9"/>
<path d="M14.79 27.698L20.3225 33.5355H17.32L9.92249 26.493L17.2925 19.448H20.2875L14.79 25.253H28.2725V27.698H14.79Z" fill="white"/>
<path d="M43.2151 66.1819L36.6051 88.2219H32.9476L28.4051 72.4444C28.2326 71.8419 28.1176 71.1594 28.0601 70.3994H27.9751C27.9326 70.9169 27.7826 71.5844 27.5226 72.4019L22.5926 88.2219H19.0626L12.3901 66.1819H16.0926L20.6551 82.7544C20.8001 83.2569 20.9001 83.9169 20.9576 84.7344H21.1301C21.1726 84.1044 21.3026 83.4294 21.5176 82.7119L26.5976 66.1819H29.8276L34.3901 82.7969C34.5326 83.3294 34.6426 83.9894 34.7126 84.7769H34.8851C34.9126 84.2169 35.0351 83.5569 35.2501 82.7969L39.7276 66.1819H43.2151Z" fill="white"/>
<path d="M77.2751 66.1819L70.6651 88.2219H67.0076L62.4651 72.4444C62.2926 71.8419 62.1776 71.1594 62.1201 70.3994H62.0326C61.9901 70.9169 61.8401 71.5844 61.5801 72.4019L56.6501 88.2219H53.1251L46.4526 66.1819H50.1551L54.7176 82.7544C54.8626 83.2569 54.9626 83.9169 55.0201 84.7344H55.1926C55.2351 84.1044 55.3651 83.4294 55.5801 82.7119L60.6601 66.1819H63.8901L68.4526 82.7969C68.5951 83.3294 68.7051 83.9894 68.7751 84.7769H68.9476C68.9751 84.2169 69.0976 83.5569 69.3126 82.7969L73.7901 66.1819H77.2751Z" fill="white"/>
<path d="M111.338 66.1819L104.728 88.2219H101.07L96.5275 72.4444C96.355 71.8419 96.24 71.1594 96.1825 70.3994H96.095C96.0525 70.9169 95.9025 71.5844 95.6425 72.4019L90.7125 88.2219H87.1825L80.51 66.1819H84.2125L88.775 82.7544C88.92 83.2569 89.02 83.9169 89.0775 84.7344H89.25C89.2925 84.1044 89.4225 83.4294 89.6375 82.7119L94.7175 66.1819H97.9475L102.51 82.7969C102.653 83.3294 102.763 83.9894 102.833 84.7769H103.005C103.033 84.2169 103.155 83.5569 103.37 82.7969L107.848 66.1819H111.338Z" fill="white"/>
</svg>
