<svg width="125" height="125" viewBox="0 0 125 125" fill="none" xmlns="http://www.w3.org/2000/svg">
<g clip-path="url(#clip0_35_56)">
<path d="M100.482 112.098C89.6066 120.449 76.2774 124.976 62.5648 124.975C43.7648 124.975 25.1748 116.535 12.8898 100.467C-8.10021 73.0625 -2.92021 33.87 24.5348 12.87C35.8573 4.1575 49.2148 0 62.4473 0C81.2473 0 99.8423 8.44 112.122 24.5225C133.117 51.92 127.885 91.12 100.482 112.098Z" fill="#59B4D9"/>
<path d="M88.9999 73.4456C91.1693 76.2752 94.3726 78.1287 97.907 78.5992C101.441 79.0698 105.018 78.119 107.852 75.9556C108.16 75.7206 108.397 75.4356 108.677 75.1831C114.7 79.4256 118.882 82.2256 121.24 83.8306C121.937 82.0231 122.42 80.2881 122.915 78.4756C119.282 75.7536 115.706 72.9563 112.19 70.0856C113.787 65.8856 113.282 60.9856 110.365 57.1581C108.385 54.5774 105.534 52.8051 102.343 52.1717C99.1526 51.5383 95.8406 52.087 93.0249 53.7156C85.9491 47.3649 79.0361 40.8353 72.2924 34.1331C95.2049 21.8106 111.482 23.6156 111.482 23.6156C108.765 20.1506 105.72 17.1156 102.467 14.3731C92.8049 12.8806 77.7949 13.0481 60.6449 22.1706L60.6399 22.1631H60.6374C54.6523 15.8886 48.8311 9.45977 43.1799 2.88306C40.3376 3.79149 37.5694 4.91731 34.8999 6.25056C39.2724 13.4056 45.1549 20.6231 51.7849 27.6631L51.8274 27.7056C45.5564 32.1301 39.7411 37.1674 34.4674 42.7431C33.7424 43.5156 33.0449 44.2931 32.3624 45.0706C28.9327 44.3447 25.3685 44.5888 22.0699 45.7756C16.4099 33.5631 16.8649 23.7531 17.7599 18.6956C15.3024 21.2706 13.0074 23.9781 11.0299 26.8631C9.55236 32.9006 9.13236 41.6081 13.4924 52.1006C10.98 55.385 9.61774 59.4046 9.61548 63.5397C9.61322 67.6748 10.9711 71.6959 13.4799 74.9831C13.9199 75.5556 14.3899 76.0881 14.8774 76.5956C12.8058 83.728 11.5807 91.0793 11.2274 98.4981C11.8199 99.3031 11.8199 99.953 12.4074 100.738C15.4049 104.583 19.1699 107.823 22.8074 110.758C22.3574 103.883 22.8424 93.7431 27.0924 82.3281C30.0661 82.5549 33.051 82.0699 35.7999 80.9131C37.3999 82.3206 39.0749 83.7431 40.8624 85.1906C46.5147 89.6802 52.6183 93.5703 59.0749 96.7981C58.7383 99.9304 59.6032 103.074 61.4949 105.593C63.5123 108.203 66.4798 109.909 69.7502 110.339C73.0205 110.77 76.3284 109.889 78.9524 107.891C80.0398 107.04 80.9763 106.012 81.7224 104.851C91.4449 107.016 99.9399 107.398 106.237 107.398C107.202 107.398 111.68 101.308 114.245 97.5331C110.41 98.3356 99.0374 99.8981 83.4949 95.4331C83.1224 93.6371 82.3556 91.9464 81.2499 90.4831C77.3024 85.3081 70.0849 84.1881 64.7049 87.6506C58.7592 84.4045 53.1063 80.6487 47.8099 76.4256C46.6598 75.5154 45.5271 74.5836 44.4124 73.6306C46.1847 70.829 47.1909 67.6114 47.3304 64.2992C47.4699 60.987 46.7379 57.6962 45.2074 54.7556C45.9224 54.0406 46.6249 53.3231 47.3849 52.6131C53.1624 47.2156 58.5974 42.8956 63.6824 39.4281C63.4774 39.2381 63.2924 39.0381 63.0924 38.8456C63.2949 39.0331 63.4849 39.2256 63.6899 39.4131L63.6849 39.4156C71.4874 46.6306 79.7599 53.4681 87.5949 59.5781C85.5224 63.9731 85.8474 69.3256 88.9999 73.4456Z" fill="white"/>
</g>
<defs>
<clipPath id="clip0_35_56">
<rect width="125" height="125" fill="white"/>
</clipPath>
</defs>
</svg>
