<svg width="125" height="125" viewBox="0 0 125 125" fill="none" xmlns="http://www.w3.org/2000/svg">
<path d="M15 16.97V107.247C15 116.62 35.98 124.22 61.8575 124.22V16.97C61.8575 16.97 15 16.97 15 16.97Z" fill="#3999C6"/>
<path d="M61.2151 124.217H61.8576C87.7351 124.217 108.715 116.622 108.715 107.247V16.97H61.2151V124.217Z" fill="#59B4D9"/>
<path d="M108.715 16.97C108.715 26.3425 87.735 33.94 61.8575 33.94C35.98 33.94 15 26.3425 15 16.97C15 7.5975 35.98 0 61.8575 0C87.735 0 108.715 7.5975 108.715 16.97Z" fill="white"/>
<path d="M99.1351 15.9927C99.1351 22.1802 82.4451 27.1902 61.8576 27.1902C41.2701 27.1902 24.5776 22.1802 24.5776 15.9927C24.5776 9.80767 41.2701 4.79517 61.8576 4.79517C82.4451 4.79517 99.1351 9.80767 99.1351 15.9927Z" fill="#7FBA00"/>
<path d="M91.3251 22.8351C96.2051 20.9426 99.1376 18.5726 99.1376 15.9976C99.1376 9.81011 82.4476 4.79761 61.8576 4.79761C41.2701 4.79761 24.5801 9.81011 24.5801 15.9976C24.5801 18.5726 27.5126 20.9426 32.3926 22.8351C39.2076 20.1901 49.8576 18.4826 61.8576 18.4826C73.8601 18.4826 84.5051 20.1901 91.3251 22.8351Z" fill="#B8D432"/>
<path d="M92.1425 90.1701C89.635 92.2601 86.2375 93.3101 81.8225 93.3101H67.0975V54.9026H81.065C85.4625 54.9026 88.8325 55.7051 91.15 57.3676C93.32 58.9276 94.4075 61.1101 94.4075 63.8976C94.4075 66.1201 93.615 68.0101 91.9975 69.6726C90.62 71.0476 88.965 71.9976 86.925 72.5551V72.6451C89.6625 72.9826 91.8975 74.0251 93.5625 75.7776C95.12 77.4401 95.9225 79.4801 95.9225 81.8376C95.9325 85.3501 94.6525 88.1001 92.1425 90.1701ZM56.255 87.9076C52.57 91.5126 47.595 93.3101 41.3875 93.3101H27.7925V54.9026H41.3875C55.025 54.9026 61.845 61.1101 61.845 73.6026C61.845 79.5751 60 84.3551 56.255 87.9076Z" fill="white"/>
<path d="M40.6772 61.9126H36.4172V86.2976H40.7272C44.5147 86.2976 47.4497 85.1126 49.6222 82.8401C51.7022 80.5676 52.7547 77.5376 52.7547 73.7051C52.7547 70.1076 51.7022 67.2726 49.6697 65.1726C47.5372 63.0026 44.5547 61.9126 40.6772 61.9126Z" fill="#3999C6"/>
<path d="M83.7128 69.0699C84.7528 68.1649 85.2728 66.9799 85.2728 65.5099C85.2728 62.6624 83.1928 61.2449 78.9728 61.2449H75.7178V70.3449H79.5503C81.3028 70.3449 82.7228 69.9074 83.7128 69.0699Z" fill="#59B4D9"/>
<path d="M85.135 78.1026C83.995 77.2551 82.445 76.7776 80.4425 76.7776H75.71V86.9076H80.3975C82.39 86.9076 83.995 86.4351 85.18 85.4876C86.2675 84.5376 86.8325 83.3151 86.8325 81.7001C86.8425 80.1826 86.275 78.9526 85.135 78.1026Z" fill="#59B4D9"/>
</svg>
