<svg width="125" height="125" viewBox="0 0 125 125" fill="none" xmlns="http://www.w3.org/2000/svg">
<g clip-path="url(#clip0_34_35)">
<path d="M110 35.5004C110 34.5004 110.25 33.2504 110.25 32.2504C110.25 14.5004 95.75 0.250411 77.75 0.250411C67.25 0.000410825 57.5 5.00041 51.5 13.2504C47.75 10.7504 43.25 9.50041 38.5 9.50041C25 9.50041 14 20.5004 14 33.7504V35.7504C5 40.5004 0 48.2504 0 57.7504C0 72.7504 12.25 84.5004 28 84.5004H97C112.75 84.5004 125 72.7504 125 57.7504C125 47.7504 119.5 39.7504 110 35.5004Z" fill="#59B4D9"/>
<path opacity="0.2" d="M17.5 70C17.5 59.75 22.75 51.75 32.5 46.75V44.75C32.5 30.5 44.25 19 58.5 19C63.5 19 68.25 20.25 72.25 22.75C78.5 14 89 8.5 100.25 8.5C94.25 3.25 86.5 0 77.75 0C67.25 0 57.5 5 51.5 13.25C47.75 10.75 43.25 9.5 38.5 9.5C25 9.5 14 20.5 14 33.75V35.75C5 40.5 0 48.25 0 57.75C0 70.5 8.75 81 21 83.75C18.75 79.75 17.5 75 17.5 70Z" fill="white"/>
<path d="M85.75 77.4998C83.25 87.2498 74.75 93.9998 64.75 93.9998C63 93.9998 61.25 93.7498 59.5 93.2498C57 92.4998 54.5 91.4998 52.5 89.9998C50.25 88.4998 48.5 86.4998 47 84.4998C43.75 79.4998 42.25 73.4998 43.75 67.2498C46.25 57.4998 54.75 50.7498 64.75 50.7498C66.5 50.7498 68.25 50.9998 70 51.4998C75.5 52.9998 80.25 56.2498 83.25 61.2498C86.25 65.9998 87.25 71.9998 85.75 77.4998Z" fill="white"/>
<path opacity="0.1" d="M85.75 77.4998C83.25 87.2498 74.75 93.9998 64.75 93.9998C63 93.9998 61.25 93.7498 59.5 93.2498C57 92.4998 54.5 91.4998 52.5 89.9998C50.25 88.4998 48.5 86.4998 47 84.4998C43.75 79.4998 42.25 73.4998 43.75 67.2498C46.25 57.4998 54.75 50.7498 64.75 50.7498C66.5 50.7498 68.25 50.9998 70 51.4998C75.5 52.9998 80.25 56.2498 83.25 61.2498C86.25 65.9998 87.25 71.9998 85.75 77.4998Z" fill="#59B4D9"/>
<path opacity="0.3" d="M76.5002 54.2498C74.5002 52.9998 72.2502 51.9998 70.0002 51.4998C68.2502 50.9998 66.5002 50.7498 64.7502 50.7498C54.7502 50.7498 46.2502 57.4998 43.7502 67.2498C42.2502 73.4998 43.5002 79.7498 47.0002 84.4998C47.5002 85.2498 48.2502 86.2498 49.0002 86.9998C53.5002 72.7498 63.5002 60.9998 76.5002 54.2498Z" fill="#59B4D9"/>
<path d="M91.25 56.4995C87 49.4995 80.25 44.4995 72.25 42.4995C69.75 41.9995 67.25 41.4995 64.75 41.4995C50.5 41.4995 38.25 51.2495 34.75 64.9995C32.75 72.7495 34 80.7495 38 87.7495L14.5 111.5C11.5 114.5 11.5 119.75 14.5 122.75C16.25 124.25 18.25 125 20.25 125C22.25 125 24.25 124.25 26 122.75L49.5 98.9995C52 100.5 54.75 101.5 57.5 102.25C60 102.75 62.5 103.25 65 103.25C79.25 103.25 91.5 93.4995 95 79.7495C96.75 71.7495 95.5 63.4995 91.25 56.4995ZM85.75 77.4995C83.25 87.2495 74.75 93.9995 64.75 93.9995C63 93.9995 61.25 93.7495 59.5 93.2495C57 92.4995 54.5 91.4995 52.5 89.9995C50.25 88.4995 48.5 86.4995 47 84.4995C43.75 79.4995 42.25 73.4995 43.75 67.2495C46.25 57.4995 54.75 50.7495 64.75 50.7495C66.5 50.7495 68.25 50.9995 70 51.4995C75.5 52.9995 80.25 56.2495 83.25 61.2495C86.25 66.2495 87.25 71.9995 85.75 77.4995Z" fill="#3E3E3E"/>
<path opacity="0.5" d="M47.25 97.7495C44 95.4995 41.5 92.9995 39.25 89.7495C38.75 88.9995 38.5 88.4995 38 87.7495L36 89.9995L35.75 90.2495C36 90.7495 36.25 91.2495 36.75 91.7495C39.25 95.2495 42 98.2495 45.5 100.75C45.75 101 46.5 101.25 47.25 101.5L49.5 99.2495C48.5 98.4995 48 98.2495 47.25 97.7495Z" fill="#1E1E1E"/>
</g>
<defs>
<clipPath id="clip0_34_35">
<rect width="125" height="125" fill="white"/>
</clipPath>
</defs>
</svg>
