<svg width="125" height="74" viewBox="0 0 125 74" fill="none" xmlns="http://www.w3.org/2000/svg">
<g clip-path="url(#clip0_34_30)">
<path d="M123.358 36.6584C121.094 31.2926 116.408 26.7489 110.346 23.971C107.551 14.574 99.7293 5.17631 88.0637 5.17631C87.692 5.17631 87.3165 5.18605 86.9384 5.20479C82.0728 1.71591 77.3469 0.0153809 72.5337 0.0153809C69.6323 0.0153809 66.6676 0.65591 63.6958 1.92336C61.495 0.769664 58.9698 0.1686 56.2714 0.1686C50.3012 0.1686 44.6388 2.92586 41.1434 6.15622C40.0196 5.89396 38.8692 5.76296 37.7153 5.76583C28.8095 5.76583 19.9845 13.1236 17.5989 22.0442C9.9225 24.8292 4.31624 29.89 1.68374 36.4723C-0.870548 42.8593 -0.308886 49.9999 3.22459 56.0644C6.73416 62.0876 12.873 65.6837 19.6465 65.6837C22.2454 65.6837 24.7499 65.1531 27.0347 64.1312C31.1531 67.8754 36.4524 70.1137 41.4698 70.1137C43.2194 70.1137 44.8947 69.8551 46.4782 69.3426C50.541 72.6841 56.7691 73.9373 61.8221 73.9373C67.7851 73.9373 72.9661 72.3622 76.4013 69.6114C78.6273 70.6417 81.0788 71.1762 83.6363 71.1756H83.6383C90.0363 71.1756 96.6469 67.7669 100.257 63.0273C102.271 63.8527 104.391 64.2799 106.534 64.2799H106.536C113.527 64.2786 120.019 59.7149 123.075 52.6531C125.405 47.2692 125.503 41.7392 123.358 36.6584Z" fill="#3176BC"/>
<path d="M35.2664 43.1437H28.9719C28.1866 39.6735 25.0842 37.0721 21.3814 37.0721C17.0872 37.0721 13.5938 40.5661 13.5938 44.8603C13.5938 49.1552 17.0872 52.6493 21.3814 52.6493C25.0629 52.6493 28.1491 50.0775 28.9563 46.6384H35.2671C35.6513 46.6389 36.0195 46.7918 36.2912 47.0634C36.5628 47.335 36.7157 47.7033 36.7162 48.0874V69.4751C37.8607 69.7778 39.0308 69.9739 40.2115 70.0607V48.0874C40.2115 45.3619 37.9933 43.1437 35.2664 43.1437ZM21.3814 49.4183C18.8691 49.4183 16.8254 47.3739 16.8254 44.861C16.8254 42.348 18.8691 40.3044 21.3814 40.3044C23.8936 40.3044 25.9373 42.3487 25.9373 44.861C25.9373 47.3739 23.8936 49.4183 21.3814 49.4183ZM60.3511 44.6904V37.4153C60.3511 34.6891 58.1329 32.4722 55.408 32.4722H44.3461C43.9618 32.4716 43.5934 32.3187 43.3218 32.0469C43.0501 31.7752 42.8973 31.4067 42.897 31.0225V4.71875C42.2866 5.16493 41.7015 5.64461 41.1442 6.15555C40.57 6.0207 39.9881 5.92143 39.4017 5.85827V31.0225C39.4017 33.7493 41.6199 35.9675 44.3461 35.9675H55.408C55.7918 35.968 56.1598 36.1207 56.4312 36.3921C56.7026 36.6635 56.8553 37.0315 56.8558 37.4153V44.6904C53.4018 45.4866 50.8165 48.5813 50.8165 52.2738C50.8165 56.568 54.3092 60.062 58.6034 60.062C62.8977 60.062 66.3911 56.568 66.3911 52.2738C66.3911 48.5813 63.8051 45.4866 60.3511 44.6904ZM58.6034 56.831C56.0918 56.831 54.0481 54.7867 54.0481 52.2744C54.0481 49.7615 56.0918 47.7171 58.6034 47.7171C61.1157 47.7171 63.1594 49.7615 63.1594 52.2744C63.1594 54.7867 61.1151 56.831 58.6034 56.831ZM108.01 37.4282C108.01 33.134 104.517 29.6406 100.224 29.6406C95.9296 29.6406 92.4362 33.134 92.4362 37.4282C92.4362 41.1097 95.0073 44.1953 98.4451 45.0032V46.4452C98.4449 46.8292 98.2924 47.1974 98.0209 47.4691C97.7495 47.7408 97.3814 47.8937 96.9973 47.8942H82.9927V22.8335C82.9927 20.1073 80.7751 17.889 78.0489 17.889H70.4591C69.6738 14.4195 66.572 11.8187 62.8692 11.8187C58.575 11.8187 55.0816 15.3127 55.0816 19.607C55.0816 23.9012 58.575 27.394 62.8692 27.394C66.5507 27.394 69.6369 24.8228 70.4442 21.3844H78.0495C78.4337 21.3847 78.802 21.5375 79.0736 21.8092C79.3452 22.0809 79.4978 22.4493 79.498 22.8335V70.6818C80.629 70.9552 81.7982 71.1161 82.9933 71.1582V51.3902H96.998C99.7248 51.3902 101.942 49.172 101.942 46.4458V45.0194C105.411 44.2334 108.01 41.1316 108.01 37.4282ZM62.8686 24.1623C60.3563 24.1623 58.3126 22.1186 58.3126 19.607C58.3126 17.0947 60.3563 15.0504 62.8686 15.0504C65.3808 15.0504 67.4245 17.0947 67.4245 19.607C67.4245 22.1186 65.3808 24.1623 62.8686 24.1623ZM100.224 41.9842C97.7115 41.9842 95.6678 39.9398 95.6678 37.4276C95.6678 34.9153 97.7115 32.8716 100.224 32.8716C102.735 32.8716 104.778 34.9153 104.778 37.4276C104.778 39.9398 102.735 41.9842 100.224 41.9842Z" fill="white"/>
</g>
<defs>
<clipPath id="clip0_34_30">
<rect width="125" height="73.9529" fill="white"/>
</clipPath>
</defs>
</svg>
