<svg width="125" height="125" viewBox="0 0 125 125" fill="none" xmlns="http://www.w3.org/2000/svg">
<path d="M2.5 20V102.5C2.5 103.163 2.76339 103.799 3.23223 104.268C3.70107 104.737 4.33696 105 5 105H37.5C47.39 105 50.8275 107.642 51.9675 109.085C52.4325 109.675 53.1425 110 53.895 110H68.6075C69.36 110 70.0675 109.675 70.535 109.085C71.6725 107.642 75.11 105 85 105H117.5C118.163 105 118.799 104.737 119.268 104.268C119.737 103.799 120 103.163 120 102.5V20C120 19.337 119.737 18.7011 119.268 18.2322C118.799 17.7634 118.163 17.5 117.5 17.5H5C4.33696 17.5 3.70107 17.7634 3.23223 18.2322C2.76339 18.7011 2.5 19.337 2.5 20Z" fill="#0072C6"/>
<path d="M12.5 25H110V97.5H12.5V25Z" fill="#E5E5E5"/>
<path d="M114.115 22.9402C113.62 22.5227 101.84 12.7502 84.105 12.7502C69.8925 12.7502 63.545 20.3802 61.25 24.2052C58.955 20.3802 52.6075 12.7502 38.395 12.7502C20.66 12.7502 8.88 22.5227 8.385 22.9402L7.5 23.6877V98.0602H115V23.6877L114.115 22.9402Z" fill="#7A7A7A"/>
<path d="M38.68 15.2502C21.4825 15.2502 10 24.8502 10 24.8502V95.0002C10 95.0002 25.43 91.8852 38.8575 91.8852C49.6775 91.8852 60.5 97.5002 60.5 97.5002V27.2202C60.5 27.2202 55.8925 15.2502 38.68 15.2502ZM83.82 15.2502C101.018 15.2502 112.5 24.8502 112.5 24.8502V95.0002C112.5 95.0002 97.07 91.8852 83.6425 91.8852C72.8225 91.8852 62 97.5002 62 97.5002V27.2202C62 27.2202 66.6075 15.2502 83.82 15.2502Z" fill="#E5E5E5"/>
<path opacity="0.2" d="M32.5 18.1752C22.295 19.6002 14.95 24.3152 12.5 26.0827V91.9877C16.6225 91.2577 24.4275 90.0452 32.5 89.5827V18.1752ZM85 17.7752C84.7 17.7677 84.4075 17.7502 84.105 17.7502C70.5675 17.7502 65.8975 25.8727 65 27.7427V93.6152C69.2175 91.8702 76.5125 89.3902 83.9275 89.3902C84.2825 89.3902 84.6425 89.4077 85 89.4102V17.7752Z" fill="white"/>
<path opacity="0.4" d="M15 30.5676C22.2271 26.8683 30.2816 25.0824 38.395 25.3801C46.1825 25.6776 51.4825 28.2526 55 31.0901V34.4476C51.945 31.4276 46.77 28.2001 38.395 27.8801C27.97 27.4826 19.6775 30.9101 15 33.4701V30.5676ZM15 40.5676C22.2271 36.8683 30.2816 35.0824 38.395 35.3801C46.1825 35.6776 51.4825 38.2526 55 41.0901V44.4476C51.945 41.4276 46.77 38.2001 38.395 37.8801C27.97 37.4826 19.6775 40.9101 15 43.4701V40.5676ZM15 50.5676C22.2271 46.8683 30.2816 45.0824 38.395 45.3801C46.1825 45.6776 51.4825 48.2526 55 51.0901V54.4476C51.945 51.4276 46.77 48.2001 38.395 47.8801C27.97 47.4826 19.6775 50.9101 15 53.4701V50.5676ZM15 60.5676C22.2271 56.8683 30.2816 55.0824 38.395 55.3801C46.1825 55.6776 51.4825 58.2526 55 61.0901V64.4476C51.945 61.4276 46.77 58.2001 38.395 57.8801C27.97 57.4826 19.6775 60.9101 15 63.4701V60.5676ZM15 70.5676C22.2271 66.8683 30.2816 65.0824 38.395 65.3801C46.1825 65.6776 51.4825 68.2526 55 71.0901V74.4476C51.945 71.4276 46.77 68.2001 38.395 67.8801C27.97 67.4826 19.6775 70.9101 15 73.4701V70.5676ZM15 80.5676C22.2271 76.8683 30.2816 75.0824 38.395 75.3801C46.1825 75.6776 51.4825 78.2526 55 81.0901V84.4476C51.945 81.4276 46.77 78.2001 38.395 77.8801C27.97 77.4826 19.6775 80.9101 15 83.4701V80.5676ZM107.5 30.5676C100.273 26.8683 92.2184 25.0824 84.105 25.3801C76.3175 25.6776 71.0175 28.2526 67.5 31.0901V34.4476C70.555 31.4276 75.73 28.2001 84.105 27.8801C94.53 27.4826 102.823 30.9101 107.5 33.4701V30.5676ZM107.5 40.5676C100.273 36.8683 92.2184 35.0824 84.105 35.3801C76.3175 35.6776 71.0175 38.2526 67.5 41.0901V44.4476C70.555 41.4276 75.73 38.2001 84.105 37.8801C94.53 37.4826 102.823 40.9101 107.5 43.4701V40.5676ZM107.5 50.5676C100.273 46.8683 92.2184 45.0824 84.105 45.3801C76.3175 45.6776 71.0175 48.2526 67.5 51.0901V54.4476C70.555 51.4276 75.73 48.2001 84.105 47.8801C94.53 47.4826 102.823 50.9101 107.5 53.4701V50.5676ZM107.5 60.5676C100.273 56.8683 92.2184 55.0824 84.105 55.3801C76.3175 55.6776 71.0175 58.2526 67.5 61.0901V64.4476C70.555 61.4276 75.73 58.2001 84.105 57.8801C94.53 57.4826 102.823 60.9101 107.5 63.4701V60.5676ZM100 67.5001C96.1075 66.5101 89.1075 65.1876 84.105 65.3801C76.3175 65.6776 71.0175 68.2526 67.5 71.0901V74.4476C70.555 71.4276 75.73 68.2001 84.105 67.8801C88.6242 67.7157 93.1418 68.2461 97.5 69.4526L100 67.5001Z" fill="#231F20"/>
<path opacity="0.2" d="M32.5 18.1752C22.295 19.6002 14.95 24.3152 12.5 26.0827V91.9877C16.6225 91.2577 24.4275 90.0452 32.5 89.5827V18.1752ZM85 17.7752C84.7 17.7677 84.4075 17.7502 84.105 17.7502C70.5675 17.7502 65.8975 25.8727 65 27.7427V93.6152C69.2175 91.8702 76.5125 89.3902 83.9275 89.3902C84.2825 89.3902 84.6425 89.4077 85 89.4102V17.7752Z" fill="white"/>
</svg>
