<svg width="206" height="31" viewBox="0 0 206 31" fill="none" xmlns="http://www.w3.org/2000/svg">
<rect y="4.79688" width="26" height="16" fill="#848895"/>
<path d="M20.5333 9.66358C20.5333 9.53025 20.3333 8.46358 19.8666 7.99692C19.2666 7.33025 18.5999 7.26358 18.2666 7.26358H18.1999C16.1333 7.13025 13.0666 7.13025 12.9999 7.13025C12.9999 7.13025 9.86659 7.13025 7.79992 7.26358H7.73325C7.39992 7.26358 6.73325 7.33025 6.13325 7.99692C5.66659 8.53025 5.46659 9.59692 5.46659 9.73025C5.46659 9.79692 5.33325 10.9969 5.33325 12.2636V13.3969C5.33325 14.6636 5.46659 15.8636 5.46659 15.9303C5.46659 16.0636 5.66659 17.1302 6.13325 17.5969C6.66659 18.1969 7.33325 18.2636 7.73325 18.3302H7.93325C9.13325 18.4636 12.7999 18.4636 12.9333 18.4636C12.9333 18.4636 16.0666 18.4636 18.1333 18.3302H18.1999C18.5333 18.2636 19.1999 18.1969 19.7999 17.5969C20.2666 17.0636 20.4666 15.9969 20.4666 15.8636C20.4666 15.7969 20.5999 14.5969 20.5999 13.3302V12.1969C20.6666 10.9969 20.5333 9.73025 20.5333 9.66358ZM15.5999 12.9302L11.5999 15.0636C11.5333 15.0636 11.5333 15.1302 11.4666 15.1302C11.3999 15.1302 11.3333 15.1302 11.3333 15.0636C11.2666 14.9969 11.1999 14.9302 11.1999 14.7969V10.4636C11.1999 10.3302 11.2666 10.2636 11.3333 10.1969C11.3999 10.1302 11.5333 10.1302 11.6666 10.1969L15.6666 12.3302C15.7999 12.3969 15.8666 12.4636 15.8666 12.5969C15.8666 12.7302 15.7333 12.8636 15.5999 12.9302Z" fill="black"/>
<rect width="26" height="16" transform="translate(72 4.79688)" fill="#0F0F0F"/>
<rect x="72" y="4.79688" width="26" height="16" fill="#848895"/>
<path d="M82.3588 7.24268C81.8505 7.24268 80.3179 7.8644 80.043 7.98865C79.768 8.1129 79.4628 8.50077 79.1165 9.14092C78.7697 9.78108 78.4915 10.5294 78.0393 11.6302C77.5877 12.731 77.4823 14.8532 77.4975 15.5009C77.5126 16.1486 77.5868 16.6546 78.2505 17.0377C78.9138 17.4204 79.5006 17.821 80.1181 18.0619C80.736 18.3029 81.1574 18.4763 81.4437 18.2353C81.73 17.9944 81.9185 17.5725 81.9185 17.5725C81.9185 17.5725 82.1897 17.196 81.6776 16.9701C81.1655 16.7438 80.9094 16.5856 80.9316 16.3522C80.9543 16.1188 80.9916 15.9908 81.1196 16.021C81.2477 16.0513 81.5496 16.5931 82.7094 16.8416C83.8692 17.0901 84.9998 17.0528 84.9998 17.0528C84.9998 17.0528 86.1308 17.0906 87.2906 16.8416C88.4504 16.5931 88.7518 16.0513 88.8799 16.021C89.0079 15.9908 89.0452 16.1188 89.0679 16.3517C89.0906 16.5856 88.8345 16.7438 88.3224 16.9701C87.8103 17.196 88.0815 17.5725 88.0815 17.5725C88.0815 17.5725 88.27 17.9939 88.5563 18.2353C88.8421 18.4763 89.264 18.3029 89.8814 18.0619C90.4989 17.821 91.0862 17.4208 91.7495 17.0377C92.4132 16.6546 92.4874 16.1486 92.5025 15.5009C92.5176 14.8536 92.4123 12.731 91.9602 11.6302C91.5085 10.5294 91.2298 9.78108 90.883 9.14092C90.5372 8.50077 90.2315 8.1129 89.957 7.98818C89.6821 7.8644 88.149 7.24268 87.6407 7.24268C87.1323 7.24268 86.9821 7.597 86.9821 7.597L86.8049 7.98865C86.8049 7.98865 85.6144 7.76236 85.0078 7.76188C84.4012 7.76188 83.195 7.98865 83.195 7.98865L83.0179 7.59653C83.0179 7.59653 82.8676 7.24268 82.3588 7.24268ZM82.4141 11.9425H82.433C83.1743 11.9425 83.7747 12.5911 83.7747 13.391C83.7747 14.1913 83.1743 14.8395 82.433 14.8395C81.6918 14.8395 81.0913 14.1913 81.0913 13.391C81.0908 12.5987 81.6804 11.9533 82.4141 11.9425ZM87.567 11.9425H87.5859C88.3196 11.9533 88.9087 12.5992 88.9087 13.391C88.9087 14.1913 88.3082 14.8395 87.567 14.8395C86.8252 14.8395 86.2253 14.1913 86.2253 13.391C86.2253 12.5911 86.8252 11.9425 87.567 11.9425Z" fill="black"/>
<rect x="144" y="4.79688" width="26" height="16" fill="#848895"/>
<g clip-path="url(#clip0_26_257)">
<path fill-rule="evenodd" clip-rule="evenodd" d="M157 4.79688C152.582 4.79688 149 8.46921 149 12.9992C149 16.6235 151.292 19.6982 154.471 20.7825C154.871 20.8585 155.018 20.6049 155.018 20.3882C155.018 20.1925 155.01 19.5465 155.007 18.8612C152.781 19.3572 152.311 17.8932 152.311 17.8932C151.947 16.9452 151.423 16.6932 151.423 16.6932C150.697 16.1839 151.478 16.1945 151.478 16.1945C152.281 16.2522 152.704 17.0395 152.704 17.0395C153.418 18.2935 154.576 17.9312 155.032 17.7215C155.104 17.1915 155.311 16.8295 155.54 16.6249C153.763 16.4172 151.895 15.7139 151.895 12.5709C151.895 11.6755 152.208 10.9435 152.72 10.3692C152.636 10.1625 152.363 9.32821 152.797 8.19854C152.797 8.19854 153.469 7.97821 154.998 9.03921C155.636 8.85754 156.32 8.76654 157 8.76321C157.68 8.76654 158.365 8.85754 159.004 9.03921C160.531 7.97821 161.202 8.19854 161.202 8.19854C161.637 9.32854 161.363 10.1625 161.28 10.3692C161.794 10.9435 162.104 11.6755 162.104 12.5709C162.104 15.7215 160.232 16.4152 158.451 16.6182C158.738 16.8729 158.993 17.3719 158.993 18.1372C158.993 19.2345 158.984 20.1179 158.984 20.3882C158.984 20.6065 159.128 20.8622 159.534 20.7815C162.711 19.6959 165 16.6222 165 12.9992C165 8.46921 161.418 4.79688 157 4.79688Z" fill="black"/>
<path fill-rule="evenodd" clip-rule="evenodd" d="M152.03 16.5739C152.012 16.6149 151.95 16.6269 151.893 16.5989C151.835 16.5723 151.802 16.5166 151.821 16.4756C151.838 16.4336 151.901 16.4223 151.959 16.4499C152.017 16.4769 152.05 16.5333 152.03 16.5739ZM152.354 16.9446C152.316 16.9806 152.241 16.9639 152.191 16.9066C152.138 16.8493 152.129 16.7729 152.167 16.7363C152.207 16.6996 152.279 16.7169 152.331 16.7739C152.384 16.8319 152.394 16.9079 152.354 16.9446ZM152.669 17.4169C152.621 17.4519 152.54 17.4193 152.491 17.3463C152.442 17.2729 152.442 17.1856 152.492 17.1506C152.542 17.1156 152.62 17.1473 152.671 17.2196C152.72 17.2936 152.72 17.3813 152.669 17.4169ZM153.102 17.8736C153.058 17.9229 152.964 17.9096 152.896 17.8419C152.826 17.7759 152.807 17.6819 152.851 17.6323C152.895 17.5826 152.989 17.5966 153.058 17.6636C153.127 17.7296 153.148 17.8243 153.102 17.8736ZM153.698 18.1383C153.678 18.2026 153.588 18.2316 153.498 18.2046C153.408 18.1763 153.348 18.1013 153.366 18.0363C153.385 17.9716 153.476 17.9409 153.567 17.9703C153.657 17.9983 153.717 18.0729 153.698 18.1383ZM154.353 18.1876C154.355 18.2553 154.278 18.3109 154.183 18.3123C154.087 18.3146 154.01 18.2599 154.009 18.1933C154.009 18.1249 154.084 18.0696 154.179 18.0679C154.275 18.0659 154.353 18.1203 154.353 18.1876ZM154.962 18.0813C154.973 18.1473 154.907 18.2149 154.813 18.2329C154.72 18.2503 154.634 18.2096 154.622 18.1443C154.61 18.0766 154.678 18.0086 154.77 17.9909C154.865 17.9743 154.95 18.0146 154.962 18.0813Z" fill="black"/>
</g>
<rect x="36" y="4.79688" width="26" height="16" fill="#848895"/>
<path d="M55.9116 9.04851C55.3912 9.27952 54.8389 9.43089 54.2733 9.49753C54.8692 9.14129 55.3151 8.5803 55.5275 7.91934C54.9677 8.25179 54.3551 8.48602 53.7162 8.61191C53.4494 8.32716 53.1269 8.10026 52.7688 7.94529C52.4107 7.79033 52.0245 7.7106 51.6343 7.71106C50.0592 7.71106 48.7822 8.98812 48.7822 10.5635C48.7822 10.7867 48.8073 11.0043 48.8561 11.2134C46.4854 11.0943 44.3834 9.95896 42.9766 8.23317C42.7228 8.6685 42.5896 9.16354 42.5905 9.66742C42.5905 10.6569 43.094 11.5301 43.8594 12.0415C43.4064 12.0271 42.9634 11.9047 42.5673 11.6845L42.5671 11.7206C42.5671 13.1023 43.5503 14.2549 44.8553 14.5174C44.4351 14.6312 43.9945 14.6478 43.567 14.5659C43.9302 15.6991 44.9834 16.524 46.2314 16.5469C45.2211 17.3399 43.9734 17.7701 42.689 17.768C42.459 17.768 42.2318 17.7545 42.0085 17.728C43.3127 18.5662 44.8307 19.0111 46.381 19.0095C51.6278 19.0095 54.4966 14.6633 54.4966 10.894C54.4966 10.7703 54.494 10.647 54.4887 10.5245C55.0472 10.1213 55.5291 9.62142 55.9116 9.04851Z" fill="black"/>
<rect x="180" y="4.79688" width="26" height="16" rx="8" fill="white"/>
<rect x="180" y="4.79688" width="26" height="16" fill="#848895"/>
<path d="M200.147 7.86664L197.977 18.097C197.814 18.819 197.387 18.9986 196.78 18.6586L193.475 16.2229L191.88 17.7568C191.704 17.9333 191.556 18.081 191.216 18.081L191.453 14.7146L197.579 9.17911C197.846 8.94167 197.522 8.81008 197.165 9.04755L189.592 13.8161L186.332 12.7957C185.623 12.5742 185.61 12.0865 186.479 11.7463L199.232 6.83336C199.822 6.61196 200.339 6.96489 200.147 7.86664Z" fill="black"/>
<g clip-path="url(#clip1_26_257)">
<rect x="108" y="4.79688" width="26" height="16" rx="8" fill="white"/>
<rect x="108" y="4.79688" width="26" height="16" fill="#848895"/>
<path d="M127.969 12.8239C127.969 12.3982 127.8 11.9901 127.499 11.689C127.198 11.388 126.789 11.2187 126.364 11.2183C125.974 11.2178 125.597 11.3603 125.306 11.6187C124.244 10.9392 122.827 10.5111 121.264 10.4648L122.22 7.19428L124.568 7.63054C124.568 7.64973 124.564 7.66779 124.565 7.68698C124.579 7.95562 124.699 8.20773 124.899 8.38801C125.099 8.5683 125.362 8.66204 125.63 8.64867C125.899 8.63459 126.151 8.51456 126.331 8.31493C126.511 8.11529 126.605 7.85232 126.592 7.5837C126.578 7.31506 126.458 7.06295 126.258 6.88267C126.058 6.70238 125.795 6.60864 125.527 6.62201C125.356 6.63112 125.19 6.68354 125.044 6.77435C124.899 6.86517 124.779 6.9914 124.696 7.14123L124.695 7.14095L121.866 6.61523L120.739 10.4643C119.172 10.5057 117.751 10.9316 116.684 11.6097C116.394 11.3568 116.021 11.2177 115.636 11.2183C115.21 11.2188 114.802 11.3881 114.501 11.6891C114.2 11.9901 114.031 12.3982 114.031 12.8239C114.031 13.3714 114.312 13.8765 114.769 14.1711C114.74 14.3322 114.726 14.4956 114.725 14.6593C114.725 16.9766 117.535 18.8621 120.988 18.8621C124.442 18.8621 127.25 16.9766 127.25 14.659C127.25 14.4987 127.236 14.3407 127.209 14.1849C127.441 14.0412 127.633 13.8409 127.766 13.6028C127.898 13.3646 127.969 13.0966 127.969 12.8239ZM118.012 13.9165C118.012 13.787 118.037 13.6587 118.087 13.539C118.136 13.4193 118.209 13.3105 118.301 13.2189C118.392 13.1273 118.501 13.0547 118.621 13.0052C118.741 12.9556 118.869 12.9301 118.999 12.9302C119.128 12.9302 119.256 12.9557 119.376 13.0054C119.496 13.055 119.605 13.1277 119.696 13.2193C119.788 13.311 119.86 13.4198 119.91 13.5395C119.959 13.6592 119.985 13.7875 119.985 13.9171C119.985 14.1788 119.881 14.4297 119.696 14.6147C119.511 14.7997 119.26 14.9036 118.998 14.9035C118.736 14.9034 118.485 14.7994 118.3 14.6143C118.115 14.4292 118.012 14.1782 118.012 13.9165ZM123.314 16.5855C123.285 16.6159 122.577 17.3364 120.977 17.3364C119.368 17.3364 118.725 16.6061 118.698 16.575C118.658 16.5241 118.638 16.4593 118.644 16.3944C118.65 16.3294 118.681 16.2694 118.731 16.2267C118.78 16.1841 118.844 16.1622 118.909 16.1657C118.974 16.1692 119.035 16.1978 119.08 16.2454C119.095 16.2612 119.631 16.8321 120.976 16.8321C122.345 16.8321 122.945 16.2409 122.951 16.2353C122.998 16.1919 123.061 16.1683 123.125 16.1691C123.189 16.17 123.25 16.1953 123.297 16.2399C123.343 16.2844 123.37 16.345 123.374 16.4091C123.377 16.4733 123.355 16.5365 123.314 16.5855ZM123.118 14.9033C122.988 14.9034 122.86 14.8779 122.74 14.8284C122.621 14.7789 122.512 14.7063 122.42 14.6147C122.328 14.5231 122.256 14.4144 122.206 14.2947C122.156 14.1751 122.131 14.0468 122.131 13.9172C122.131 13.7877 122.156 13.6594 122.206 13.5397C122.255 13.42 122.328 13.3112 122.419 13.2195C122.511 13.1279 122.62 13.0552 122.739 13.0056C122.859 12.9559 122.987 12.9304 123.117 12.9303C123.379 12.9302 123.63 13.034 123.815 13.2189C124 13.4039 124.104 13.6548 124.104 13.9164C124.104 14.178 124 14.429 123.815 14.6141C123.63 14.7992 123.379 14.9032 123.118 14.9033Z" fill="black"/>
</g>
<defs>
<clipPath id="clip0_26_257">
<rect width="16" height="16" fill="white" transform="translate(149 4.79688)"/>
</clipPath>
<clipPath id="clip1_26_257">
<rect x="108" y="4.79688" width="26" height="16" rx="8" fill="white"/>
</clipPath>
</defs>
</svg>
