<svg width="185" height="66" viewBox="0 0 185 66" fill="none" xmlns="http://www.w3.org/2000/svg">
<g clip-path="url(#clip0_26_169)">
<path d="M100.761 30.7626H95.8491L106.636 19.1926L114.405 27.5218H120.428L109.651 15.9611L124.328 0.21875H122.638L115.095 8.29423H109.932L102.875 15.8652H97.3534V8.29423H93.5679V27.2185H97.3534V19.6507H102.875L103.686 20.5204L90.3984 34.7926H83.0658V42.6235L67.0015 59.8733H68.6977L87.8881 39.2992V50.2997H92.2927V43.3168H100.767C102.432 43.3168 104.029 42.6554 105.206 41.4783C106.383 40.3012 107.045 38.7046 107.045 37.0397C107.045 35.3748 106.383 33.7783 105.206 32.6011C104.029 31.424 102.432 30.7626 100.767 30.7626H100.761ZM114.674 26.9028L107.274 18.9666L109.44 16.6452L119.005 26.9028H114.674ZM92.2865 35.1671H100.761C101.245 35.1869 101.702 35.3927 102.038 35.7422C102.374 36.0913 102.561 36.5568 102.561 37.0412C102.561 37.5257 102.374 37.9912 102.038 38.3403C101.702 38.6898 101.245 38.8956 100.761 38.9154H92.2865V35.1671ZM100.761 42.6978H91.6674V49.6868H88.501V39.0299L91.6674 35.6468V39.5283H100.761C101.422 39.5258 102.055 39.2621 102.521 38.7947C102.988 38.3273 103.251 37.694 103.253 37.0335C103.247 36.3758 102.982 35.7471 102.516 35.2835C102.049 34.8198 101.419 34.5589 100.761 34.5573H92.6981L95.6603 31.3909H100.761C102.262 31.3909 103.701 31.987 104.762 33.0481C105.823 34.1091 106.419 35.5484 106.419 37.049C106.419 38.5496 105.823 39.9888 104.762 41.0499C103.701 42.1109 102.262 42.7071 100.761 42.7071V42.6978Z" fill="white"/>
<path d="M124.691 30.7626H113.043C111.895 30.7667 110.796 31.2244 109.984 32.0363C109.172 32.8482 108.714 33.9479 108.71 35.0959V45.9664C108.714 47.1144 109.172 48.2142 109.984 49.0261C110.796 49.8379 111.895 50.2957 113.043 50.2997H124.691C125.84 50.2997 126.942 49.8432 127.755 49.0304C128.567 48.2179 129.024 47.1157 129.024 45.9664V35.099C129.024 34.5298 128.913 33.9659 128.695 33.4397C128.477 32.9138 128.158 32.4356 127.756 32.0329C127.354 31.6302 126.876 31.3108 126.35 31.0927C125.824 30.8748 125.26 30.7626 124.691 30.7626ZM128.405 45.9695C128.405 46.9547 128.014 47.8994 127.317 48.5958C126.621 49.2926 125.676 49.6838 124.691 49.6838H113.046C112.062 49.6798 111.12 49.287 110.424 48.5915C109.729 47.8957 109.336 46.9532 109.332 45.9695V35.099C109.336 34.1151 109.729 33.1729 110.424 32.4771C111.12 31.7816 112.062 31.3888 113.046 31.3847H124.691C125.676 31.3847 126.621 31.776 127.317 32.4727C128.014 33.1692 128.405 34.1138 128.405 35.099V45.9695Z" fill="white"/>
<path d="M112.492 46.5205H125.241V34.5481H112.492V46.5205ZM113.111 35.1671H124.622V45.9014H113.111V35.1671Z" fill="white"/>
<path d="M131.531 50.3059H135.935V30.7626H131.531V50.3059ZM132.15 31.3817H135.316V49.6869H132.15V31.3817Z" fill="white"/>
<path d="M154.318 45.9014H153.99L146.722 32.239C146.485 31.7936 146.132 31.4213 145.699 31.1611C145.267 30.9011 144.772 30.7634 144.268 30.7626H141.188C140.449 30.7626 139.741 31.0561 139.218 31.5785C138.696 32.101 138.402 32.8095 138.402 33.5483V50.3059H142.807V35.1671H143.293L150.554 48.8295C150.791 49.2749 151.145 49.6473 151.577 49.9073C152.01 50.1673 152.504 50.305 153.009 50.3059H155.952C156.691 50.3059 157.4 50.0125 157.922 49.49C158.445 48.9676 158.738 48.2591 158.738 47.5202V30.7626H154.318V45.9014ZM154.937 31.3817H158.119V47.5202C158.119 48.0947 157.891 48.646 157.484 49.0524C157.078 49.4585 156.527 49.6869 155.952 49.6869H153.012C152.619 49.6863 152.234 49.5792 151.898 49.3771C151.562 49.1749 151.287 48.8849 151.102 48.5386L143.674 34.5481H142.197V49.6869H139.021V33.5483C139.021 32.9735 139.25 32.4226 139.656 32.0162C140.062 31.6098 140.613 31.3817 141.188 31.3817H144.268C144.66 31.3826 145.044 31.49 145.38 31.6921C145.716 31.8945 145.99 32.1839 146.174 32.53L153.603 46.5205H154.922L154.937 31.3817Z" fill="white"/>
<path d="M161.171 30.7626V35.1671H168.742V50.3059H173.146V35.1671H180.714V30.7626H161.171ZM180.095 34.5481H172.527V49.6869H169.361V34.5481H161.79V31.3817H180.095V34.5481Z" fill="white"/>
<path d="M18.2142 8.29425H4.28564V27.2185H18.2142C19.3106 27.2183 20.3843 26.9059 21.3097 26.3177C22.235 25.7296 22.9737 24.8901 23.4393 23.8974C23.905 22.9048 24.0783 21.8001 23.939 20.7126C23.7997 19.625 23.3535 18.5996 22.6528 17.7564C23.3535 16.9132 23.7997 15.8878 23.939 14.8002C24.0783 13.7127 23.905 12.608 23.4393 11.6153C22.9737 10.6227 22.235 9.78318 21.3097 9.19506C20.3843 8.6069 19.3106 8.29447 18.2142 8.29425ZM8.07112 12.0797H17.8242C18.2192 12.0787 18.6055 12.1952 18.934 12.4144C19.2625 12.6336 19.5184 12.9456 19.6691 13.3107C19.8198 13.6757 19.8584 14.0774 19.7801 14.4645C19.7018 14.8516 19.5102 15.2067 19.2295 15.4845C19.1272 15.5868 19.0129 15.6762 18.889 15.7507C18.5717 15.9552 18.2017 16.0628 17.8242 16.0602H8.07112V12.0797ZM17.8242 23.4331H8.07112V19.4557H17.8242C18.352 19.4557 18.8583 19.6654 19.2315 20.0386C19.6048 20.4118 19.8145 20.9181 19.8145 21.4459C19.8145 21.9737 19.6048 22.48 19.2315 22.8532C18.8583 23.2265 18.352 23.4362 17.8242 23.4362V23.4331Z" fill="white"/>
<path d="M45.6381 13.1755C45.3833 11.8026 44.6553 10.5624 43.581 9.67062C42.5066 8.77882 41.1534 8.29181 39.7571 8.29426H27.1904V27.2185H30.9883V20.2326H37.8319L41.5461 27.2185H45.8361L41.9114 19.8364C43.2129 19.3363 44.2981 18.3963 44.9788 17.1796C45.6597 15.9629 45.8928 14.5462 45.6381 13.1755ZM39.7571 16.4471H30.9883V12.0797H39.7695C40.0632 12.0687 40.356 12.117 40.6306 12.2217C40.9051 12.3265 41.1558 12.4856 41.3676 12.6894C41.5793 12.8933 41.7476 13.1378 41.8628 13.4082C41.9776 13.6787 42.0371 13.9695 42.0371 14.2634C42.0371 14.5573 41.9776 14.8482 41.8628 15.1186C41.7476 15.3891 41.5793 15.6336 41.3676 15.8374C41.1558 16.0413 40.9051 16.2004 40.6306 16.3051C40.356 16.4099 40.0632 16.4582 39.7695 16.4471H39.7571Z" fill="white"/>
<path d="M67.4378 23.4331H52.6859V19.6507H67.4378V15.8652H52.6859V12.0797H67.4378V8.29425H48.9004V27.2185H67.4378V23.4331Z" fill="white"/>
<path d="M74.5475 21.0095H86.6809V27.2185H90.4632V11.5473C90.4632 10.6851 90.1209 9.85812 89.5115 9.24814C88.902 8.63816 88.0756 8.29506 87.2132 8.29425H74.0059C73.1435 8.29506 72.3171 8.63816 71.7076 9.24814C71.0982 9.85812 70.7559 10.6851 70.7559 11.5473V27.2185H74.5475V21.0095ZM74.5475 12.0797H86.6809V17.224H74.5475V12.0797Z" fill="white"/>
<path d="M140.43 59.6845H138.399V58.2111C138.399 57.9935 138.442 57.7778 138.526 57.5766C138.609 57.3757 138.732 57.1928 138.886 57.039C139.04 56.8854 139.222 56.7635 139.424 56.6802C139.625 56.5973 139.841 56.5549 140.058 56.5552H144.017C144.235 56.5549 144.451 56.5973 144.652 56.6802C144.853 56.7635 145.036 56.8854 145.19 57.039C145.344 57.1928 145.466 57.3757 145.55 57.5766C145.633 57.7778 145.676 57.9935 145.676 58.2111V59.3997C145.678 59.6594 145.618 59.916 145.502 60.1481C145.386 60.3806 145.216 60.5821 145.008 60.7368L141.42 63.473H145.775V65.2188H138.399V63.6464L143.497 59.7959C143.546 59.7612 143.586 59.7145 143.612 59.6603C143.638 59.6062 143.65 59.5464 143.646 59.4864V58.6568C143.646 58.5606 143.608 58.4677 143.542 58.3984C143.474 58.3291 143.383 58.2885 143.287 58.2854H140.811C140.712 58.2854 140.618 58.3244 140.548 58.3944C140.478 58.464 140.439 58.5584 140.439 58.6568L140.43 59.6845Z" fill="white"/>
<path d="M147.326 63.5597V58.2111C147.326 57.9935 147.369 57.7778 147.452 57.5766C147.536 57.3757 147.658 57.1928 147.812 57.039C147.966 56.8854 148.149 56.7635 148.351 56.6802C148.552 56.5973 148.768 56.5549 148.985 56.5552H153.588C153.805 56.5549 154.021 56.5973 154.222 56.6802C154.424 56.7635 154.607 56.8854 154.761 57.039C154.915 57.1928 155.037 57.3757 155.121 57.5766C155.204 57.7778 155.247 57.9935 155.247 58.2111V63.5597C155.247 63.7776 155.204 63.9933 155.121 64.1945C155.037 64.396 154.915 64.5787 154.761 64.7328C154.607 64.8869 154.424 65.0092 154.223 65.0925C154.021 65.1757 153.806 65.2188 153.588 65.2188H148.985C148.767 65.2188 148.552 65.1757 148.35 65.0925C148.149 65.0092 147.966 64.8869 147.812 64.7328C147.658 64.5787 147.536 64.396 147.452 64.1945C147.369 63.9933 147.326 63.7776 147.326 63.5597ZM149.357 63.1016C149.357 63.2 149.396 63.2948 149.465 63.3644C149.535 63.434 149.63 63.473 149.728 63.473H152.857C152.955 63.4706 153.048 63.4309 153.117 63.3616C153.187 63.2926 153.226 63.1994 153.229 63.1016V58.6692C153.226 58.5714 153.187 58.4783 153.117 58.4092C153.048 58.3402 152.955 58.3003 152.857 58.2978H149.728C149.63 58.2978 149.535 58.3368 149.465 58.4064C149.396 58.4764 149.357 58.5708 149.357 58.6692V63.1016Z" fill="white"/>
<path d="M158.828 59.6845H156.797V58.2111C156.797 57.9935 156.84 57.7778 156.924 57.5766C157.007 57.3757 157.129 57.1928 157.283 57.039C157.437 56.8854 157.62 56.7635 157.822 56.6802C158.023 56.5973 158.239 56.5549 158.456 56.5552H162.415C162.633 56.5549 162.849 56.5973 163.05 56.6802C163.251 56.7635 163.434 56.8854 163.588 57.039C163.742 57.1928 163.864 57.3757 163.948 57.5766C164.031 57.7778 164.074 57.9935 164.074 58.2111V59.3997C164.076 59.6594 164.016 59.916 163.9 60.1481C163.784 60.3806 163.614 60.5821 163.406 60.7368L159.818 63.473H164.173V65.2188H156.797V63.6464L161.895 59.7959C161.944 59.7612 161.984 59.7145 162.01 59.6603C162.036 59.6062 162.048 59.5464 162.044 59.4864V58.6568C162.044 58.5606 162.006 58.4677 161.939 58.3984C161.872 58.3291 161.781 58.2885 161.685 58.2854H159.209C159.11 58.2854 159.015 58.3244 158.946 58.3944C158.876 58.464 158.837 58.5584 158.837 58.6568L158.828 59.6845Z" fill="white"/>
<path d="M167.631 59.6845H165.601V58.2111C165.601 57.9935 165.644 57.7778 165.727 57.5766C165.81 57.3757 165.933 57.1928 166.087 57.039C166.241 56.8854 166.424 56.7635 166.625 56.6802C166.826 56.5973 167.042 56.5549 167.26 56.5552H171.218C171.436 56.5549 171.652 56.5973 171.853 56.6802C172.054 56.7635 172.237 56.8854 172.391 57.039C172.545 57.1928 172.668 57.3757 172.751 57.5766C172.834 57.7778 172.877 57.9935 172.877 58.2111V59.3997C172.879 59.6594 172.819 59.916 172.703 60.1481C172.587 60.3806 172.418 60.5821 172.209 60.7368L168.618 63.473H172.977V65.2188H165.601V63.6464L170.698 59.7959C170.748 59.7612 170.787 59.7145 170.813 59.6603C170.839 59.6062 170.851 59.5464 170.847 59.4864V58.6568C170.847 58.5606 170.81 58.4677 170.743 58.3984C170.676 58.3291 170.584 58.2885 170.488 58.2854H168.012C167.914 58.2863 167.82 58.3257 167.751 58.3953C167.682 58.4649 167.643 58.5587 167.643 58.6568L167.631 59.6845Z" fill="white"/>
</g>
<defs>
<clipPath id="clip0_26_169">
<rect width="185" height="65" fill="white" transform="translate(0 0.21875)"/>
</clipPath>
</defs>
</svg>
