<svg width="24" height="24" viewBox="0 0 24 24" fill="none" xmlns="http://www.w3.org/2000/svg">
<g clip-path="url(#clip0_15_75)">
<path fill-rule="evenodd" clip-rule="evenodd" d="M17.293 8.29308C17.3852 8.19757 17.4956 8.12139 17.6176 8.06898C17.7396 8.01657 17.8708 7.98898 18.0036 7.98783C18.1364 7.98668 18.2681 8.01198 18.3909 8.06226C18.5138 8.11254 18.6255 8.18679 18.7194 8.28069C18.8133 8.37458 18.8875 8.48623 18.9378 8.60913C18.9881 8.73202 19.0134 8.8637 19.0122 8.99648C19.0111 9.12926 18.9835 9.26048 18.9311 9.38249C18.8787 9.50449 18.8025 9.61483 18.707 9.70708L12.707 15.7071C12.5248 15.8893 12.2792 15.9942 12.0215 15.9998C11.7638 16.0054 11.514 15.9113 11.324 15.7371L5.324 10.2371C5.12853 10.0578 5.01229 9.8082 5.00085 9.54321C4.99519 9.41201 5.01542 9.28097 5.0604 9.15758C5.10538 9.03419 5.17422 8.92087 5.263 8.82408C5.35177 8.7273 5.45874 8.64895 5.57779 8.5935C5.69684 8.53806 5.82565 8.5066 5.95686 8.50094C6.22185 8.4895 6.48053 8.58379 6.676 8.76308L11.97 13.6161L17.293 8.29308Z" fill="white"/>
</g>
<defs>
<clipPath id="clip0_15_75">
<rect width="24" height="24" fill="white"/>
</clipPath>
</defs>
</svg>
